<svg width="44" height="40" viewBox="0 0 44 40" fill="none" xmlns="http://www.w3.org/2000/svg">
<path d="M41.8154 13.4626C38.3362 5.4085 30.0831 0.306215 21.1153 0.665254C12.1476 1.02429 4.35271 6.76908 1.56465 15.0741C-1.2234 23.379 1.58218 32.4962 8.60147 37.9412L9.12181 38.3396C11.3497 39.8197 14.3438 39.5497 16.2545 37.6965L16.8918 37.0761L21.2241 32.8588L17.8272 29.5521L12.3666 34.8678C10.0929 33.2949 8.25663 31.1963 7.02291 28.761L12.8753 23.3542L27.0179 37.1159V37.1273C27.5259 37.6045 28.0889 38.0228 28.6959 38.3737L28.9999 38.5445C29.8769 39.0169 30.8298 39.3527 31.625 39.3527C32.7695 39.357 33.887 39.0149 34.823 38.3737H34.8522C35.6843 37.7681 36.4716 37.1062 37.2084 36.3931C43.3884 30.3687 45.2073 21.302 41.8096 13.4569L41.8154 13.4626ZM33.8232 33.0978C33.1297 33.7736 32.3765 34.3887 31.5723 34.9361L16.2721 20.0475L16.8392 19.4954C18.6604 17.7269 21.3118 17.0372 23.7965 17.6856C24.4052 17.8412 24.9894 18.0767 25.5329 18.3856C26.0771 18.6912 26.5783 19.0642 27.0238 19.4954L27.5909 20.0475L22.6389 24.8681L26.0357 28.1748L30.9877 23.3542L36.6471 28.8634L36.8576 29.0683C36.0626 30.5539 35.0394 31.9127 33.8232 33.0978ZM38.518 24.0713L30.9877 16.7408L30.4206 16.1887C29.6799 15.4664 28.8444 14.8425 27.9358 14.3333C26.1131 13.3009 24.0403 12.7606 21.9315 12.7682C18.7479 12.7679 15.6944 13.9982 13.4424 16.1887L5.49698 23.9233C5.38424 23.1561 5.32758 22.382 5.32743 21.6069C5.32644 15.0341 9.39326 9.10809 15.6312 6.59265C21.8691 4.07722 29.0494 5.46787 33.8232 10.116C37.5805 13.7753 39.3238 18.9573 38.518 24.0713Z" fill="#1662DD"/>
</svg>